<?xml version="1.0" encoding="UTF-8"?>
<svg version="1.1" xmlns="http://www.w3.org/2000/svg" width="2018" height="423">
<path d="M0 0 C82.17 0 164.34 0 249 0 C248.20207598 4.7875441 247.26676415 8.34642953 245.5703125 12.8046875 C245.18450768 13.82638031 245.18450768 13.82638031 244.79090881 14.86871338 C244.2168191 16.38704708 243.64017325 17.90441603 243.06137085 19.42095947 C242.08826822 21.97126663 241.12208461 24.52410733 240.1574707 27.07763672 C239.05166409 30.00441914 237.94529715 32.9309822 236.83705139 35.85684204 C231.83144344 49.07205893 226.87063453 62.30408943 221.90866089 75.53573608 C220.75714159 78.60638087 219.6052108 81.67687078 218.45291138 84.7472229 C211.90530936 102.19428788 205.37782913 119.64857068 198.8984375 137.12109375 C198.60914431 137.90103195 198.31985111 138.68097015 198.02179146 139.48454285 C195.2437401 146.97450654 192.46737398 154.46508379 189.69852066 161.95845318 C188.67734854 164.72079675 187.65433054 167.48245476 186.63101578 170.2440052 C185.96375493 172.04660949 185.29889573 173.85010228 184.63424683 175.65367126 C179.25380426 190.16806722 173.58971328 204.55990736 168 219 C85.83 219 3.66 219 -81 219 C-80.30510543 215.52552715 -79.62417634 212.6874832 -78.43359375 209.42504883 C-78.11656494 208.55096878 -77.79953613 207.67688873 -77.47290039 206.77632141 C-77.13121826 205.84595566 -76.78953613 204.9155899 -76.4375 203.95703125 C-76.0861499 202.99222336 -75.7347998 202.02741547 -75.37280273 201.03337097 C-74.63141114 198.99957602 -73.88828971 196.96641093 -73.14355469 194.93383789 C-72.00079629 191.81467347 -70.86322159 188.69365723 -69.7265625 185.57226562 C-69.00550915 183.59624437 -68.28416502 181.6203292 -67.5625 179.64453125 C-67.04997681 178.23987358 -67.04997681 178.23987358 -66.52709961 176.80683899 C-66.2100708 175.94221542 -65.89304199 175.07759186 -65.56640625 174.18676758 C-65.28740479 173.42463455 -65.00840332 172.66250153 -64.72094727 171.87727356 C-64 170 -64 170 -63 168 C-54.44473969 165.52603991 -45.12974749 165.08600694 -36.296875 164.0546875 C-34.80476734 163.87836908 -33.31268197 163.701862 -31.82061768 163.525177 C-28.71466077 163.15820991 -25.60841938 162.79378146 -22.50195312 162.43115234 C-18.5351023 161.9678392 -14.5690969 161.4976829 -10.60328293 161.02558708 C-7.53059528 160.66065191 -4.45746546 160.29955655 -1.38419342 159.93957901 C0.07827928 159.76777542 1.54060892 159.59474919 3.00278473 159.42043686 C5.0473168 159.17723862 7.09239705 158.93929307 9.13769531 158.70263672 C10.29698547 158.56654999 11.45627563 158.43046326 12.6506958 158.29025269 C16.11736847 157.98982878 19.52212297 157.95026865 23 158 C21.87749905 161.39666453 20.75155808 164.79217913 19.625 168.1875 C19.30789063 169.14720703 18.99078125 170.10691406 18.6640625 171.09570312 C18.3546875 172.02705078 18.0453125 172.95839844 17.7265625 173.91796875 C17.44377441 174.77156982 17.16098633 175.6251709 16.86962891 176.50463867 C15.9892222 179.03092641 14.99358256 181.5160436 14 184 C43.04 184 72.08 184 102 184 C102.99 180.7 103.98 177.4 105 174 C106.11715502 170.86042337 107.25327732 167.74013378 108.43359375 164.625 C108.75280289 163.77502441 109.07201202 162.92504883 109.40089417 162.04931641 C110.07080947 160.26732104 110.74228945 158.48591316 111.4152832 156.70507812 C112.43455986 154.00778046 113.4491498 151.30875749 114.46289062 148.609375 C115.11951923 146.86448079 115.77641154 145.11968578 116.43359375 143.375 C116.73164413 142.58303223 117.02969452 141.79106445 117.33677673 140.97509766 C119.48829602 135.28517865 121.73972159 129.65069603 124 124 C67.9 124 11.8 124 -46 124 C-44.20610755 118.02035851 -42.465329 112.32784547 -40.27270508 106.53076172 C-40.01462665 105.84561556 -39.75654821 105.1604694 -39.49064922 104.45456123 C-38.67008257 102.27840216 -37.84493873 100.10401438 -37.01953125 97.9296875 C-36.50599998 96.56985873 -35.99277515 95.2099142 -35.4798584 93.84985352 C-33.59443612 88.85683801 -31.70312479 83.86604788 -29.8125 78.875 C-25.584375 67.69625 -21.35625 56.5175 -17 45 C10.72 45 38.44 45 67 45 C61.91004005 59.4215532 56.4900201 73.72594773 51 88 C79.38 87.67 107.76 87.34 137 87 C142.8800597 70.96457885 142.8800597 70.96457885 148.75756836 54.92822266 C149.49323405 52.92346856 150.22898651 50.9187463 150.96484375 48.9140625 C151.34838013 47.86629639 151.7319165 46.81853027 152.1270752 45.73901367 C152.67506775 44.24712524 152.67506775 44.24712524 153.23413086 42.72509766 C153.55167831 41.85905914 153.86922577 40.99302063 154.19639587 40.10073853 C155 38 155 38 156 36 C100.23 36 44.46 36 -13 36 C-12.15200687 31.76003437 -11.06404276 28.25086659 -9.53125 24.23828125 C-9.29088013 23.60641403 -9.05051025 22.97454681 -8.80285645 22.3235321 C-8.29699577 20.99583258 -7.78927229 19.66884144 -7.27978516 18.3425293 C-6.49900436 16.30990804 -5.72361592 14.27529521 -4.94921875 12.24023438 C-1.17588571 2.35177142 -1.17588571 2.35177142 0 0 Z " fill="#FFFFFF" transform="translate(830,63)"/>
<path d="M0 0 C82.17 0 164.34 0 249 0 C248.20207598 4.7875441 247.26676415 8.34642953 245.5703125 12.8046875 C245.18450768 13.82638031 245.18450768 13.82638031 244.79090881 14.86871338 C244.2168191 16.38704708 243.64017325 17.90441603 243.06137085 19.42095947 C242.08826822 21.97126663 241.12208461 24.52410733 240.1574707 27.07763672 C239.05166409 30.00441914 237.94529715 32.9309822 236.83705139 35.85684204 C231.83144344 49.07205893 226.87063453 62.30408943 221.90866089 75.53573608 C220.75714159 78.60638087 219.6052108 81.67687078 218.45291138 84.7472229 C211.90530936 102.19428788 205.37782913 119.64857068 198.8984375 137.12109375 C198.60914431 137.90103195 198.31985111 138.68097015 198.02179146 139.48454285 C195.2437401 146.97450654 192.46737398 154.46508379 189.69852066 161.95845318 C188.67734854 164.72079675 187.65433054 167.48245476 186.63101578 170.2440052 C185.96375493 172.04660949 185.29889573 173.85010228 184.63424683 175.65367126 C179.25380426 190.16806722 173.58971328 204.55990736 168 219 C85.83 219 3.66 219 -81 219 C-80.30510543 215.52552715 -79.62417634 212.6874832 -78.43359375 209.42504883 C-78.11656494 208.55096878 -77.79953613 207.67688873 -77.47290039 206.77632141 C-77.13121826 205.84595566 -76.78953613 204.9155899 -76.4375 203.95703125 C-76.0861499 202.99222336 -75.7347998 202.02741547 -75.37280273 201.03337097 C-74.63141114 198.99957602 -73.88828971 196.96641093 -73.14355469 194.93383789 C-72.00079629 191.81467347 -70.86322159 188.69365723 -69.7265625 185.57226562 C-69.00550915 183.59624437 -68.28416502 181.6203292 -67.5625 179.64453125 C-67.04997681 178.23987358 -67.04997681 178.23987358 -66.52709961 176.80683899 C-66.2100708 175.94221542 -65.89304199 175.07759186 -65.56640625 174.18676758 C-65.28740479 173.42463455 -65.00840332 172.66250153 -64.72094727 171.87727356 C-64 170 -64 170 -63 168 C-54.44473969 165.52603991 -45.12974749 165.08600694 -36.296875 164.0546875 C-34.80476734 163.87836908 -33.31268197 163.701862 -31.82061768 163.525177 C-28.71466077 163.15820991 -25.60841938 162.79378146 -22.50195312 162.43115234 C-18.5351023 161.9678392 -14.5690969 161.4976829 -10.60328293 161.02558708 C-7.53059528 160.66065191 -4.45746546 160.29955655 -1.38419342 159.93957901 C0.07827928 159.76777542 1.54060892 159.59474919 3.00278473 159.42043686 C5.0473168 159.17723862 7.09239705 158.93929307 9.13769531 158.70263672 C10.29698547 158.56654999 11.45627563 158.43046326 12.6506958 158.29025269 C16.11736847 157.98982878 19.52212297 157.95026865 23 158 C21.87749905 161.39666453 20.75155808 164.79217913 19.625 168.1875 C19.30789063 169.14720703 18.99078125 170.10691406 18.6640625 171.09570312 C18.3546875 172.02705078 18.0453125 172.95839844 17.7265625 173.91796875 C17.44377441 174.77156982 17.16098633 175.6251709 16.86962891 176.50463867 C15.9892222 179.03092641 14.99358256 181.5160436 14 184 C43.04 184 72.08 184 102 184 C102.99 180.7 103.98 177.4 105 174 C106.11715502 170.86042337 107.25327732 167.74013378 108.43359375 164.625 C108.75280289 163.77502441 109.07201202 162.92504883 109.40089417 162.04931641 C110.07080947 160.26732104 110.74228945 158.48591316 111.4152832 156.70507812 C112.43455986 154.00778046 113.4491498 151.30875749 114.46289062 148.609375 C115.11951923 146.86448079 115.77641154 145.11968578 116.43359375 143.375 C116.73164413 142.58303223 117.02969452 141.79106445 117.33677673 140.97509766 C119.48829602 135.28517865 121.73972159 129.65069603 124 124 C67.9 124 11.8 124 -46 124 C-44.20610755 118.02035851 -42.465329 112.32784547 -40.27270508 106.53076172 C-40.01462665 105.84561556 -39.75654821 105.1604694 -39.49064922 104.45456123 C-38.67008257 102.27840216 -37.84493873 100.10401438 -37.01953125 97.9296875 C-36.50599998 96.56985873 -35.99277515 95.2099142 -35.4798584 93.84985352 C-33.59443612 88.85683801 -31.70312479 83.86604788 -29.8125 78.875 C-25.584375 67.69625 -21.35625 56.5175 -17 45 C10.72 45 38.44 45 67 45 C61.91004005 59.4215532 56.4900201 73.72594773 51 88 C79.38 87.67 107.76 87.34 137 87 C142.8800597 70.96457885 142.8800597 70.96457885 148.75756836 54.92822266 C149.49323405 52.92346856 150.22898651 50.9187463 150.96484375 48.9140625 C151.34838013 47.86629639 151.7319165 46.81853027 152.1270752 45.73901367 C152.67506775 44.24712524 152.67506775 44.24712524 153.23413086 42.72509766 C153.55167831 41.85905914 153.86922577 40.99302063 154.19639587 40.10073853 C155 38 155 38 156 36 C100.23 36 44.46 36 -13 36 C-12.15200687 31.76003437 -11.06404276 28.25086659 -9.53125 24.23828125 C-9.29088013 23.60641403 -9.05051025 22.97454681 -8.80285645 22.3235321 C-8.29699577 20.99583258 -7.78927229 19.66884144 -7.27978516 18.3425293 C-6.49900436 16.30990804 -5.72361592 14.27529521 -4.94921875 12.24023438 C-1.17588571 2.35177142 -1.17588571 2.35177142 0 0 Z " fill="#FFFFFF" transform="translate(1124,63)"/>
<path d="M0 0 C3.3 0 6.6 0 10 0 C12.04668187 5.49177647 13.07252731 11.06559733 14.13891602 16.80712891 C14.34242676 17.88422623 14.5459375 18.96132355 14.75561523 20.07106018 C15.42560876 23.62217282 16.08973327 27.17435706 16.75390625 30.7265625 C17.21907864 33.1971271 17.68465544 35.6676156 18.15061951 38.13803101 C19.25025724 43.97259779 20.34634228 49.80782434 21.44053072 55.64341486 C23.51709122 66.71731296 25.60224746 77.78959454 27.68717766 88.8619194 C28.37156294 92.50002636 29.05405471 96.13848451 29.73622131 99.77700806 C30.15427684 102.00189777 30.57236101 104.22678209 30.99047852 106.45166016 C31.18010666 107.46578476 31.3697348 108.47990936 31.56510925 109.52476501 C31.74029083 110.45556381 31.91547241 111.38636261 32.09596252 112.34536743 C32.24730432 113.15243952 32.39864611 113.9595116 32.55457401 114.79104042 C32.97579173 116.87994617 33.46483451 118.93765863 34 121 C34.4640625 120.37738281 34.928125 119.75476563 35.40625 119.11328125 C41.12513507 111.46320551 46.91067051 103.86530985 52.70654297 96.2734375 C57.37996216 90.14478947 62.01306766 83.98750249 66.625 77.8125 C71.98298144 70.64231176 77.43314892 63.55185881 82.94628906 56.50048828 C87.13609422 51.1337051 91.2447452 45.71217506 95.31665039 40.25561523 C99.55306065 34.58261261 103.83300032 28.94354306 108.125 23.3125 C108.75776855 22.48194092 109.39053711 21.65138184 110.04248047 20.7956543 C111.29569172 19.15252294 112.57024247 17.52541694 113.86703491 15.91645813 C116.09631288 13.04088944 116.09631288 13.04088944 117.64935303 9.68322754 C120.42066465 4.7846703 122.90496608 0.88303555 128.53898239 -0.72439003 C136.50370975 -1.87708446 144.55086284 -1.48843836 152.5703125 -1.26953125 C155.17914234 -1.24526364 157.78803171 -1.22676854 160.39694214 -1.21379089 C166.54273867 -1.17354807 172.68549179 -1.06711261 178.82995403 -0.93624753 C185.83082969 -0.79041304 192.83185888 -0.71933562 199.8338778 -0.65420687 C214.22421269 -0.51869805 228.61199799 -0.29037546 243 0 C241.44155073 5.26567364 239.88191854 10.51879234 238.06152344 15.70117188 C237.53298012 17.21093849 237.53298012 17.21093849 236.99375916 18.75120544 C236.61941238 19.81299515 236.24506561 20.87478485 235.859375 21.96875 C235.46057632 23.10534561 235.06177765 24.24194122 234.65089417 25.41297913 C233.57598339 28.47444044 232.49896667 31.5351494 231.42074966 34.59544754 C230.74444474 36.51577383 230.06901941 38.43640723 229.39389038 40.35714722 C223.15727806 58.10002087 216.87640941 75.82677255 210.53222656 93.53149414 C207.18404012 102.87651167 203.85235075 112.22709734 200.54296875 121.5859375 C200.16417068 122.65700241 199.78537262 123.72806732 199.39509583 124.83158875 C197.56013932 130.02127354 195.72690116 135.21155857 193.89575195 140.40258789 C193.22220046 142.30876799 192.5486179 144.21493712 191.875 146.12109375 C191.44292488 147.34866898 191.44292488 147.34866898 191.00212097 148.6010437 C187.75961374 157.76952015 184.36304506 166.87173483 181 176 C153.94 176 126.88 176 99 176 C102.37564725 164.74784249 102.37564725 164.74784249 103.78662109 160.90625 C104.10524109 160.03459702 104.42386108 159.16294403 104.75213623 158.26487732 C105.08916565 157.3524678 105.42619507 156.44005829 105.7734375 155.5 C106.13399231 154.51737686 106.49454712 153.53475372 106.86602783 152.52235413 C108.03248961 149.34705013 109.20357913 146.17347748 110.375 143 C111.18151855 140.8078763 111.98799611 138.61573751 112.79443359 136.42358398 C118.17255888 121.82890195 123.65026921 107.27477289 129.29052734 92.77929688 C129.54525818 92.12142685 129.79998901 91.46355682 130.06243896 90.78575134 C130.73632215 89.04629215 131.41413748 87.30835771 132.09228516 85.57055664 C133.11099001 83.14004017 133.11099001 83.14004017 133 81 C132.42838135 81.76739502 132.42838135 81.76739502 131.84521484 82.55029297 C124.36778537 92.57902942 116.8360706 102.55742998 109.13452148 112.4152832 C103.57369159 119.53424274 98.08653029 126.7080556 92.60888672 133.89111328 C89.37425193 138.13098814 86.13300392 142.36581143 82.89233398 146.60107422 C80.08050039 150.27661243 77.2720622 153.954676 74.46875 157.63671875 C73.59766602 158.77947266 73.59766602 158.77947266 72.70898438 159.9453125 C71.6050297 161.39370103 70.50209227 162.84286573 69.40039062 164.29296875 C68.89701172 164.95296875 68.39363281 165.61296875 67.875 166.29296875 C67.43929687 166.8655542 67.00359375 167.43813965 66.5546875 168.02807617 C66.04164063 168.67881104 65.52859375 169.3295459 65 170 C63.93644035 171.52493324 63.93644035 171.52493324 62.85139465 173.08067322 C60.6841219 175.65771351 60.1565772 175.96612119 56.66532898 176.7215271 C55.39735977 176.70820343 54.12939056 176.69487976 52.82299805 176.68115234 C51.76851723 176.68246658 51.76851723 176.68246658 50.69273376 176.68380737 C48.38124394 176.67964446 46.07269797 176.6330641 43.76171875 176.5859375 C42.15462326 176.5747405 40.54750723 176.56620269 38.94038391 176.56021118 C34.71974692 176.53735185 30.50035785 176.47845572 26.2802124 176.4119873 C21.97018312 176.35050098 17.65995126 176.32318275 13.34960938 176.29296875 C4.89916824 176.22870777 -3.55026045 176.12636571 -12 176 C-14.52713193 165.64081263 -16.50845816 155.22199604 -18.390625 144.73046875 C-18.62005421 143.45597083 -18.62005421 143.45597083 -18.85411835 142.15572548 C-19.66074063 137.67324996 -20.4633819 133.19008319 -21.26269531 128.70629883 C-22.08520549 124.09709562 -22.92177759 119.49055896 -23.76144791 114.88445568 C-24.40927586 111.31610332 -25.04661224 107.74593389 -25.68114471 104.17519569 C-25.98501636 102.47573834 -26.29279961 100.77697528 -26.60468292 99.07896996 C-27.03959001 96.70576756 -27.45948299 94.33035078 -27.87597656 91.95385742 C-28.00576904 91.26433487 -28.13556152 90.57481232 -28.26928711 89.86439514 C-29.52076976 82.52967233 -28.3738009 76.38003297 -25.85449219 69.40722656 C-25.41022888 68.16523499 -24.96596558 66.92324341 -24.50823975 65.64361572 C-24.02137896 64.3091903 -23.53425057 62.97486249 -23.046875 61.640625 C-22.54397578 60.24614162 -22.04172933 58.85142267 -21.5401001 57.45648193 C-20.48931922 54.53976396 -19.43313552 51.625084 -18.37255859 48.71191406 C-17.02575915 45.01229174 -15.6887199 41.30924346 -14.35532761 37.60477066 C-13.31806154 34.72444905 -12.27742325 31.84535549 -11.23563385 28.96666718 C-10.74237271 27.60358051 -10.24967365 26.24029029 -9.75759125 24.87677765 C-6.72562888 16.48770882 -3.51543753 8.19998845 0 0 Z " fill="#FFFFFF" transform="translate(542,106)"/>
<path d="M0 0 C27.72 0 55.44 0 84 0 C80.67707477 11.07641742 80.67707477 11.07641742 78.5625 15.3125 C76.18974876 20.34301764 74.52588741 25.42091418 72.9921875 30.76171875 C71.82758078 34.56273831 70.39586732 38.27768715 69 42 C-281.13 42 -631.26 42 -992 42 C-1002 24 -1002 24 -1002 23 C-674.31 23 -346.62 23 -9 23 C-7.515 18.545 -7.515 18.545 -6 14 C-3.03 7.07 -3.03 7.07 0 0 Z " fill="#FFFFFF" transform="translate(1015,11)"/>
<path d="M0 0 C56.1 0 112.2 0 170 0 C169.19956202 4.80262787 168.23931276 8.41883093 166.53125 12.89453125 C166.29088013 13.52735519 166.05051025 14.16017914 165.80285645 14.81217957 C165.29781271 16.13841122 164.7900822 17.46362259 164.27978516 18.7878418 C163.49647547 20.8216512 162.72221676 22.85873631 161.94921875 24.89648438 C158.14857743 34.85142257 158.14857743 34.85142257 157 36 C154.23061034 36.09517803 151.48622841 36.12554265 148.71655273 36.11352539 C147.41423203 36.11374443 147.41423203 36.11374443 146.08560181 36.1139679 C143.20157414 36.11326846 140.3176102 36.10547463 137.43359375 36.09765625 C135.43962133 36.09579218 133.44564845 36.09436823 131.45167542 36.09336853 C126.19254298 36.08954248 120.93343797 36.07971145 115.67431641 36.06866455 C110.31217825 36.0584523 104.95003569 36.05387131 99.58789062 36.04882812 C89.05858167 36.03808926 78.52929311 36.0210118 68 36 C67.87022766 36.72213684 67.74045532 37.44427368 67.60675049 38.18829346 C67.02090466 40.90312694 66.23869364 43.37862036 65.29199219 45.98730469 C64.93855743 46.96647354 64.58512268 47.9456424 64.22097778 48.95448303 C63.83352386 50.01622238 63.44606995 51.07796173 63.046875 52.171875 C62.63968231 53.2960936 62.23248962 54.42031219 61.81295776 55.57859802 C60.69642263 58.65817974 59.57655081 61.73652157 58.45496368 64.8142662 C57.5055333 67.42127211 56.55876618 70.0292422 55.61188698 72.63717556 C48.16160248 93.15394415 40.62804275 113.63990274 33.06665039 134.1159668 C22.630942 162.38149041 12.32230826 190.6928111 2 219 C-25.06 219 -52.12 219 -80 219 C-78.03130396 211.78144785 -76.00576831 204.89819077 -73.40234375 197.9296875 C-73.05632111 196.99175858 -72.71029846 196.05382965 -72.35379028 195.08747864 C-71.21926583 192.01506622 -70.07833801 188.94507302 -68.9375 185.875 C-68.12962904 183.69004406 -67.32226558 181.50490042 -66.51538086 179.31958008 C-64.84134916 174.78702003 -63.16515264 170.25526979 -61.48730469 165.72412109 C-58.03140655 156.38709492 -54.59842352 147.04166865 -51.16702271 137.69561768 C-50.05313029 134.66198201 -48.93860076 131.62858099 -47.82397461 128.59521484 C-42.76491817 114.82435512 -37.72455408 101.04672386 -32.69262695 87.26593018 C-30.32825788 80.79126157 -27.96243727 74.31712319 -25.5965271 67.84301758 C-23.55574671 62.25848613 -21.51572435 56.67367985 -19.47705078 51.08837891 C-17.40397762 45.40964934 -15.32759756 39.73213817 -13.24902344 34.05541992 C-12.46714887 31.91845697 -11.6863606 29.78109621 -10.90673828 27.64331055 C-9.82744967 24.68431185 -8.74426001 21.72676859 -7.66015625 18.76953125 C-7.19108604 17.47931816 -7.19108604 17.47931816 -6.71253967 16.16304016 C-6.41302902 15.34844833 -6.11351837 14.53385651 -5.80493164 13.69458008 C-5.55135391 13.0009285 -5.29777618 12.30727692 -5.03651428 11.59260559 C-3.47247995 7.68052814 -1.71111844 3.8500165 0 0 Z " fill="#FFFFFF" transform="translate(178,63)"/>
<path d="M0 0 C2.31 0 4.62 0 7 0 C18.88 35.64 30.76 71.28 43 108 C45.23509068 104.64736398 46.52880497 101.21976957 47.9140625 97.46875 C48.20074295 96.70186356 48.4874234 95.93497711 48.78279114 95.14485168 C49.73384717 92.59791362 50.67940525 90.04897016 51.625 87.5 C52.29140799 85.71235692 52.95816187 83.92484275 53.62524414 82.13745117 C55.39333399 77.39686111 57.1566391 72.65450684 58.918396 67.91156006 C61.05391602 62.16297298 63.192243 56.41542908 65.3303833 50.66781616 C67.01127912 46.14900059 68.69107746 41.62978697 70.36767578 37.109375 C73.68871753 28.16062518 77.03265635 19.22057289 80.41015625 10.29296875 C80.75412949 9.37816238 81.09810272 8.46335602 81.45249939 7.52082825 C81.93052757 6.26177925 81.93052757 6.26177925 82.41821289 4.97729492 C82.69999893 4.23203049 82.98178497 3.48676605 83.27210999 2.71891785 C84 1 84 1 85 0 C87.43396019 -0.09498646 89.83942952 -0.12558417 92.27368164 -0.11352539 C93.41506844 -0.11374443 93.41506844 -0.11374443 94.57951355 -0.1139679 C97.10642298 -0.11326862 99.63325962 -0.10547555 102.16015625 -0.09765625 C103.9075059 -0.09579212 105.65485607 -0.0943682 107.40220642 -0.09336853 C112.01031934 -0.08954293 116.61840095 -0.07971229 121.22650146 -0.06866455 C125.92508521 -0.05845134 130.62367399 -0.0538711 135.32226562 -0.04882812 C144.54819087 -0.03809005 153.77409284 -0.02101313 163 0 C161.51848514 7.58048453 159.15324138 14.65521552 156.546875 21.91796875 C156.09394929 23.19221182 155.64150372 24.46662565 155.1894989 25.74119568 C153.96996085 29.1760077 152.74399969 32.60849476 151.51685715 36.04059601 C150.222302 39.66485069 148.93379173 43.29125296 147.64477539 46.91748047 C145.77146424 52.18577695 143.8962375 57.45338434 142.01855183 62.72012329 C138.69305167 72.04790942 135.38017589 81.38011508 132.07421875 90.71484375 C131.12431624 93.39666438 130.17436289 96.07846699 129.22436523 98.76025391 C128.99279881 99.41395714 128.7612324 100.06766037 128.52264881 100.74117279 C124.3575717 112.49735997 120.18002596 124.24912083 116 136 C115.61465088 137.08343689 115.22930176 138.16687378 114.83227539 139.28314209 C112.75920476 145.1100456 110.68277055 150.93572667 108.60012817 156.75921631 C107.99834426 158.4428429 107.39747283 160.12679596 106.7975769 161.81109619 C105.99671925 164.05865797 105.19231003 166.30491263 104.38671875 168.55078125 C103.94545654 169.78481689 103.50419434 171.01885254 103.04956055 172.2902832 C102 175 102 175 101 176 C98.01701786 176.0952822 95.05723655 176.12552175 92.07397461 176.11352539 C91.13748581 176.11367142 90.20099701 176.11381744 89.23612976 176.1139679 C86.12484461 176.11326837 83.01361851 176.10547415 79.90234375 176.09765625 C77.75142957 176.09579221 75.60051497 176.09436824 73.44960022 176.09336853 C67.77618242 176.08954225 62.10279005 176.07971102 56.42938232 176.06866455 C50.64498234 176.0584528 44.86057827 176.05387142 39.07617188 176.04882812 C27.71743672 176.03808885 16.35872047 176.02101111 5 176 C-9.68075355 132.06733857 -9.68075355 132.06733857 -15.85911751 113.10664749 C-16.96178765 109.7233503 -18.07006815 106.34208249 -19.18969727 102.96435547 C-20.31104065 99.58091795 -21.41935553 96.19347267 -22.51849937 92.80276108 C-23.12740097 90.93534857 -23.74940666 89.07222483 -24.3717804 87.20925903 C-24.73353867 86.0846225 -25.09529694 84.95998596 -25.46801758 83.80126953 C-25.78934158 82.82175323 -26.11066559 81.84223694 -26.44172668 80.83303833 C-27.41062951 75.91620143 -26.03722536 71.69702767 -24.36108398 67.078125 C-24.02660751 66.1485498 -23.69213104 65.21897461 -23.34751892 64.26123047 C-22.98404861 63.26752441 -22.62057831 62.27381836 -22.24609375 61.25 C-21.86695328 60.20086426 -21.48781281 59.15172852 -21.09718323 58.07080078 C-19.88210644 54.71209895 -18.659918 51.356036 -17.4375 48 C-16.64210916 45.80485737 -15.84718298 43.60954631 -15.05273438 41.4140625 C-13.09578886 36.00992749 -11.13287377 30.60798798 -9.16717529 25.20703125 C-7.98588029 21.96120348 -6.80554764 18.71502719 -5.62548828 15.46875 C-3.75097862 10.31226232 -1.87578561 5.15602365 0 0 Z " fill="#FFFFFF" transform="translate(1848,106)"/>
<path d="M0 0 C298.32 0 596.64 0 904 0 C901.03 9.405 901.03 9.405 898 19 C626.41 19 354.82 19 75 19 C74.34 22.3 73.68 25.6 73 29 C71.68 32.3 70.36 35.6 69 39 C41.94 39 14.88 39 -13 39 C-11.15234796 32.22527585 -9.29867317 25.57484158 -7.0625 18.9375 C-6.82337891 18.21240234 -6.58425781 17.48730469 -6.33789062 16.74023438 C-4.43308813 11.04593033 -2.23966721 5.59916802 0 0 Z " fill="#FFFFFF" transform="translate(1036,303)"/>
<path d="M0 0 C0.82862045 0.00359528 1.65724091 0.00719055 2.51097107 0.01089478 C3.81329178 0.01067574 3.81329178 0.01067574 5.141922 0.01045227 C8.02594967 0.01115171 10.9099136 0.01894554 13.79393005 0.02676392 C15.78790247 0.02862799 17.78187535 0.03005194 19.77584839 0.03105164 C25.03498082 0.03487769 30.29408583 0.04470871 35.5532074 0.05575562 C40.91534555 0.06596786 46.27748811 0.07054885 51.63963318 0.07559204 C62.16894213 0.0863309 72.69823069 0.10340837 83.2275238 0.12442017 C81.47250633 3.79592064 79.23359274 6.87381375 76.7275238 10.06192017 C75.81596265 11.23371519 74.90450709 12.40559236 73.9931488 13.57754517 C73.52973083 14.17115845 73.06631287 14.76477173 72.58885193 15.37637329 C70.53741532 18.01057095 68.50864738 20.66204371 66.4775238 23.31192017 C61.81418157 29.38156324 57.11145306 35.42038321 52.40916443 41.45986938 C47.32291483 47.99517319 42.26860074 54.55421655 37.2275238 61.12442017 C30.9851904 69.26026137 24.70902897 77.36850201 18.40916443 85.45986938 C13.32291483 91.99517319 8.26860074 98.55421655 3.2275238 105.12442017 C-2.35083215 112.39487743 -7.95252225 119.64579598 -13.5849762 126.87442017 C-18.17713657 132.76877004 -22.74151513 138.68290303 -27.2724762 144.62442017 C-31.93005102 150.73120959 -36.61942561 156.81227407 -41.3349762 162.87442017 C-41.91892151 163.62529907 -42.50286682 164.37617798 -43.10450745 165.14981079 C-44.65755004 167.1437288 -46.21058829 169.13742214 -47.7724762 171.12442017 C-48.54309639 172.40469337 -48.54309639 172.40469337 -49.32928467 173.71083069 C-52.20499269 176.55169623 -53.95242873 176.71038683 -57.91821289 176.746521 C-58.73604752 176.72854462 -59.55388214 176.71056824 -60.39649963 176.69204712 C-61.69947746 176.69314232 -61.69947746 176.69314232 -63.02877808 176.69425964 C-65.89710657 176.69077895 -68.76380678 176.65189556 -71.6318512 176.61270142 C-73.62152723 176.60337499 -75.61121475 176.59625808 -77.60090637 176.59126282 C-82.83564502 176.57217964 -88.06968908 176.52306709 -93.30415344 176.46774292 C-98.64636336 176.41657912 -103.9886856 176.39375488 -109.33106995 176.36856079 C-119.81184373 176.31494995 -130.29210219 176.22962085 -140.7724762 176.12442017 C-139.83231306 174.69822847 -138.88999544 173.27345691 -137.9467926 171.84927368 C-137.16001633 170.65891258 -137.16001633 170.65891258 -136.35734558 169.44450378 C-134.1221087 166.17234993 -131.66332164 163.12003978 -129.1474762 160.06192017 C-124.95208324 154.89074775 -120.86970894 149.65640288 -116.8974762 144.31192017 C-110.84653851 136.1767262 -104.62149028 128.18341922 -98.38282776 120.19180298 C-94.48645288 115.18960431 -90.63285114 110.15441202 -86.7724762 105.12442017 C-85.10638366 102.95731169 -83.43942421 100.79087064 -81.7724762 98.62442017 C-80.93912714 97.54109892 -80.10579379 96.45776561 -79.2724762 95.37442017 C-51.7724762 59.62442017 -51.7724762 59.62442017 -24.2724762 23.87442017 C-23.65263855 23.06859497 -23.65263855 23.06859497 -23.02027893 22.24649048 C-22.19436437 21.17285003 -21.36835662 20.09928125 -20.54225159 19.02578735 C-18.34460621 16.16976097 -16.14901255 13.31218451 -13.95606995 10.45254517 C-13.49651917 9.85377563 -13.03696838 9.2550061 -12.56349182 8.63809204 C-11.67748427 7.48359735 -10.79204516 6.32866614 -9.90724182 5.17324829 C-6.409652 0.61785082 -5.86140807 0.01073994 0 0 Z " fill="#FFFFFF" transform="translate(1670.772476196289,105.87557983398438)"/>
<path d="M0 0 C26.07 0 52.14 0 79 0 C78.34081585 3.9551049 77.8235955 6.89104675 76.50732422 10.51489258 C76.04681923 11.7950676 76.04681923 11.7950676 75.57701111 13.10110474 C75.23964432 14.02293549 74.90227753 14.94476624 74.5546875 15.89453125 C74.19721939 16.88484344 73.83975128 17.87515564 73.47145081 18.89547729 C72.6899901 21.0591428 71.90626778 23.22199247 71.12057495 25.38412476 C68.95363197 31.34851386 66.8039914 37.31914231 64.65234375 43.2890625 C64.4249885 43.91923719 64.19763325 44.54941189 63.96338844 45.19868279 C58.87685641 59.29771606 53.88054681 73.42820305 48.89318848 87.56256104 C41.19617273 109.37555931 33.45856019 131.17310436 25.625 152.9375 C25.23778778 154.01446136 24.85057556 155.09142273 24.45162964 156.20101929 C23.37816265 159.18535751 22.30281435 162.16900888 21.2265625 165.15234375 C20.75333809 166.46758026 20.75333809 166.46758026 20.27055359 167.80938721 C19.98356094 168.6031073 19.6965683 169.39682739 19.40087891 170.21459961 C19.15270416 170.9023497 18.90452942 171.59009979 18.64883423 172.2986908 C18 174 18 174 17 176 C-10.06 176 -37.12 176 -65 176 C-64.08609338 171.43046692 -62.75658696 167.29507012 -61.1484375 162.94921875 C-60.85810638 162.15607773 -60.56777527 161.36293671 -60.26864624 160.54576111 C-59.30791307 157.92492193 -58.34162346 155.3061719 -57.375 152.6875 C-56.69288103 150.83192466 -56.01091745 148.9762922 -55.32910156 147.12060547 C-50.24639237 133.30521774 -45.09498346 119.51578011 -39.91186523 105.73779297 C-35.13422941 93.03727868 -30.39287461 80.3235341 -25.66241455 67.6053772 C-19.4366109 50.8688572 -13.19129449 34.14010524 -6.875 17.4375 C-6.57673309 16.64783844 -6.27846619 15.85817688 -5.97116089 15.04458618 C-5.14611685 12.86126786 -4.31950837 10.67855017 -3.4921875 8.49609375 C-3.03183105 7.28107178 -2.57147461 6.0660498 -2.09716797 4.81420898 C-1 2 -1 2 0 0 Z " fill="#FFFFFF" transform="translate(1762,106)"/>
<path d="M0 0 C26.07 0 52.14 0 79 0 C76.75022974 10.12396618 76.75022974 10.12396618 75.37792969 13.90307617 C75.06781448 14.76586182 74.75769928 15.62864746 74.43818665 16.51757812 C73.93511238 17.89139648 73.93511238 17.89139648 73.421875 19.29296875 C72.88369392 20.78437378 72.88369392 20.78437378 72.3346405 22.3059082 C71.55479169 24.46540336 70.77249077 26.62401425 69.98800659 28.78182983 C67.83117335 34.71512832 65.69259143 40.65501581 63.55078125 46.59375 C63.09451426 47.85728403 62.63822029 49.12080833 62.18190002 50.38432312 C57.50932679 63.32881858 52.91400491 76.30045383 48.32272339 89.2739563 C40.8279276 110.45077735 33.2929073 131.61260911 25.6875 152.75 C25.29851532 153.83227875 24.90953064 154.9145575 24.50875854 156.02963257 C23.42787618 159.0359099 22.34518973 162.04152979 21.26171875 165.046875 C20.94305847 165.93323135 20.62439819 166.81958771 20.29608154 167.73280334 C19.86081146 168.93772682 19.86081146 168.93772682 19.41674805 170.16699219 C19.1655571 170.86379089 18.91436615 171.5605896 18.65556335 172.27850342 C18 174 18 174 17 176 C-10.06 176 -37.12 176 -65 176 C-64.32104244 172.6052122 -63.68848388 169.86846446 -62.51977539 166.69604492 C-62.21681046 165.86829559 -61.91384552 165.04054626 -61.60169983 164.18771362 C-61.10469826 162.84762741 -61.10469826 162.84762741 -60.59765625 161.48046875 C-60.24912094 160.53213165 -59.90058563 159.58379456 -59.54148865 158.60671997 C-58.3856599 155.46555233 -57.22423014 152.32648942 -56.0625 149.1875 C-55.24072725 146.95928684 -54.41911534 144.73101436 -53.59765625 142.50268555 C-47.57409208 126.18096055 -41.47907302 109.88630622 -35.35180664 93.60327148 C-30.58682005 80.93387706 -25.86044323 68.25065825 -21.15625 55.55859375 C-20.5593774 53.9487113 -19.96249426 52.33883276 -19.36560059 50.72895813 C-16.69554146 43.52668669 -14.02690152 36.32389834 -11.36306 29.11932468 C-10.25573738 26.12583192 -9.14659943 23.13301399 -8.03703308 20.14035225 C-7.51675987 18.73578782 -6.99730572 17.3309197 -6.47871399 15.92573357 C-5.76391835 13.98910416 -5.04634579 12.05352533 -4.328125 10.11816406 C-3.72339355 8.48334076 -3.72339355 8.48334076 -3.10644531 6.81549072 C-2 4 -2 4 0 0 Z " fill="#FFFFFF" transform="translate(455,106)"/>
<path d="M0 0 C1.08864349 0.00539291 1.08864349 0.00539291 2.19927979 0.01089478 C3.34066658 0.01067574 3.34066658 0.01067574 4.50511169 0.01045227 C7.03202113 0.01115155 9.55885776 0.01894462 12.08575439 0.02676392 C13.83310404 0.02862804 15.58045421 0.03005197 17.32780457 0.03105164 C21.93591749 0.03487724 26.54399909 0.04470788 31.15209961 0.05575562 C35.85068335 0.06596883 40.54927214 0.07054906 45.24786377 0.07559204 C54.47378902 0.08633011 63.69969098 0.10340704 72.92559814 0.12442017 C72.33643707 4.20896415 71.43244251 7.89618775 70.03399658 11.77603149 C69.64056061 12.87513855 69.24712463 13.97424561 68.84176636 15.10665894 C68.4105246 16.29459045 67.97928284 17.48252197 67.53497314 18.70645142 C67.07806264 19.97598189 66.62156028 21.24565932 66.16543579 22.51547241 C64.93253518 25.94318048 63.69292275 29.36842537 62.45182037 32.79317093 C61.40958398 35.67159078 60.37118903 38.55139062 59.33264351 41.43114376 C51.47495948 63.21502624 43.49953468 84.95484887 35.46661377 106.67471313 C28.88851618 124.46601189 22.40939197 142.29164642 15.98858643 160.14028931 C15.65180878 161.07531281 15.31503113 162.0103363 14.9680481 162.97369385 C14.34248591 164.71097064 13.71801 166.44863911 13.09481812 168.18676758 C11.0373449 173.90092665 11.0373449 173.90092665 9.92559814 176.12442017 C-17.13440186 176.12442017 -44.19440186 176.12442017 -72.07440186 176.12442017 C-71.38576777 172.68124976 -70.75401359 169.98751404 -69.53411865 166.79214478 C-69.21753799 165.9572049 -68.90095734 165.12226501 -68.57478333 164.26202393 C-68.22789963 163.35938812 -67.88101593 162.45675232 -67.52362061 161.52676392 C-67.15808578 160.56644257 -66.79255096 159.60612122 -66.41593933 158.61669922 C-65.2018133 155.43027508 -63.98192154 152.24609192 -62.76190186 149.06192017 C-61.9014408 146.80771092 -61.04125683 144.55339589 -60.18133545 142.29898071 C-53.3987514 124.5311921 -46.56964391 106.78117006 -39.73309326 89.03408813 C-32.00977048 68.98172711 -24.3437369 48.90773235 -16.68658447 28.83003235 C-15.50158834 25.72364 -14.31565481 22.61760691 -13.12957764 19.5116272 C-11.88372089 16.24871649 -10.64173173 12.98441875 -9.40594482 9.71768188 C-8.95493408 8.53061646 -8.50392334 7.34355103 -8.03924561 6.12051392 C-7.67307129 5.15170288 -7.30689697 4.18289185 -6.92962646 3.1847229 C-5.37828774 -0.55257298 -3.86088987 0.00806994 0 0 Z " fill="#FFFFFF" transform="translate(352.07440185546875,105.87557983398438)"/>
<path d="M0 0 C27.06 0 54.12 0 82 0 C81.32775002 3.36124988 80.76705035 5.89865317 79.55151367 8.98095703 C79.10668137 10.11800079 79.10668137 10.11800079 78.65286255 11.27801514 C78.3278476 12.09634827 78.00283264 12.9146814 77.66796875 13.7578125 C77.32458466 14.63221985 76.98120056 15.5066272 76.62741089 16.40753174 C75.48464897 19.31489594 74.33605377 22.21991953 73.1875 25.125 C72.3758097 27.18684997 71.56453851 29.24886497 70.75366211 31.31103516 C69.04236762 35.66186018 67.32898041 40.01185309 65.61425781 44.36132812 C62.65990176 51.85879921 59.7212691 59.36239157 56.78581238 66.86727905 C54.7134565 72.16428917 52.636532 77.45941005 50.54907227 82.75048828 C46.72275508 92.45547101 42.92020967 102.16576929 39.24674988 111.92984009 C37.6142731 116.26008941 35.95970115 120.58173249 34.30270386 124.90264893 C33.53499948 126.92170486 32.77742297 128.94464978 32.03152466 130.97186279 C27.0202221 144.57896625 20.80691749 155.80904942 11.51548767 166.99827576 C9.94875282 168.92412121 9.94875282 168.92412121 9.03053284 171.06239319 C7.89841075 173.36074366 7.11245063 174.52127072 5 176 C-0.33619992 176.99486648 -5.62054997 176.81388247 -11.01953125 176.68359375 C-12.60420035 176.67053038 -14.18889782 176.66056969 -15.77360535 176.65357971 C-19.93527927 176.626911 -24.09523029 176.55820267 -28.25622559 176.48065186 C-32.50586642 176.40891469 -36.75578698 176.37704609 -41.00585938 176.34179688 C-49.33802838 176.26682718 -57.6687996 176.14743163 -66 176 C-65.42992997 172.89188584 -64.73294885 170.00076093 -63.61157227 167.04736328 C-63.32864822 166.29656494 -63.04572418 165.5457666 -62.75422668 164.7722168 C-62.44474594 163.96308838 -62.1352652 163.15395996 -61.81640625 162.3203125 C-61.32662544 161.02613403 -61.32662544 161.02613403 -60.82695007 159.70581055 C-59.74266971 156.84405546 -58.65266571 153.98451776 -57.5625 151.125 C-56.79173209 149.09498806 -56.02122906 147.06487553 -55.25097656 145.03466797 C-48.46199318 127.15570061 -41.61819745 109.29757782 -34.76953125 91.44140625 C-29.93851323 78.84552842 -25.11927219 66.24516215 -20.30529785 53.64276123 C-19.41179492 51.30398443 -18.5180085 48.9653159 -17.62390137 46.62677002 C-16.36181334 43.32567927 -15.10071968 40.02421013 -13.83984375 36.72265625 C-13.48411789 35.79275375 -13.12839203 34.86285126 -12.7618866 33.9047699 C-8.45597894 22.62233807 -4.2404618 11.30789814 0 0 Z " fill="#FFFFFF" transform="translate(1516,106)"/>
<path d="M0 0 C27.06 0 54.12 0 82 0 C81.30805375 3.45973125 80.6354228 6.28094376 79.44946289 9.52734375 C79.13566177 10.39174072 78.82186066 11.2561377 78.49855042 12.14672852 C78.16000534 13.06768311 77.82146027 13.9886377 77.47265625 14.9375 C77.12367783 15.89519287 76.7746994 16.85288574 76.41514587 17.83959961 C75.30097431 20.89431168 74.18170908 23.94713053 73.0625 27 C72.31283669 29.05457283 71.56348427 31.10925912 70.81445312 33.1640625 C69.43805484 36.9342445 68.06165156 40.70442099 66.67993164 44.47265625 C66.40315079 45.22812744 66.12636993 45.98359863 65.84120178 46.76196289 C64.92928268 49.18814509 63.96260828 51.59347931 63 54 C35.94 54 8.88 54 -19 54 C-12.96583799 35.89751398 -6.56896246 17.91535217 0 0 Z " fill="#FFFFFF" transform="translate(1355,240)"/>
<path d="M0 0 C45.21 0 90.42 0 137 0 C135.74044672 5.66798976 134.69234272 10.27654618 132.65234375 15.53125 C132.21212891 16.67078125 131.77191406 17.8103125 131.31835938 18.984375 C130.86267578 20.14453125 130.40699219 21.3046875 129.9375 22.5 C129.47794922 23.69109375 129.01839844 24.8821875 128.54492188 26.109375 C125.14583333 34.85416667 125.14583333 34.85416667 124 36 C121.20358109 36.1591344 118.43075329 36.25298048 115.6315918 36.30395508 C114.75339279 36.32337662 113.87519379 36.34279816 112.97038269 36.36280823 C104.83238368 36.5320545 96.69304014 36.62841797 88.55368328 36.70387745 C83.08684431 36.75516864 77.62254587 36.82938723 72.15698242 36.96020508 C66.87114016 37.08623068 61.58758549 37.15231858 56.30033302 37.17746544 C54.29197972 37.19700678 52.28370965 37.23726575 50.27622032 37.29932594 C32.92637192 37.81040981 32.92637192 37.81040981 26.4428606 31.8206358 C24.09635444 29.33309156 22.04802424 26.74180659 20 24 C18.82226086 22.63733565 17.63747356 21.28062585 16.4375 19.9375 C15.91671875 19.32132813 15.3959375 18.70515625 14.859375 18.0703125 C11.55704629 14.39334986 7.93162687 11.02172989 4.35546875 7.61328125 C2 5 2 5 0 0 Z " fill="#FFFFFF" transform="translate(33,63)"/>
<path d="M0 0 C23.43 0 46.86 0 71 0 C70.33973541 3.30132294 69.77360177 5.89333014 68.6171875 8.94824219 C68.3402002 9.68540466 68.06321289 10.42256714 67.77783203 11.18206787 C67.47989746 11.96245422 67.18196289 12.74284058 66.875 13.546875 C66.56804199 14.35868225 66.26108398 15.1704895 65.94482422 16.00689697 C65.29777522 17.71543363 64.64880993 19.42324563 63.99804688 21.13037109 C62.99885785 23.75299786 62.00681063 26.3782457 61.015625 29.00390625 C60.38583756 30.66422221 59.75564347 32.324384 59.125 33.984375 C58.82706543 34.77285828 58.52913086 35.56134155 58.22216797 36.37371826 C56.11545033 41.88454967 56.11545033 41.88454967 55 43 C53.36527118 43.08700342 51.72685945 43.10701063 50.08984375 43.09765625 C49.10048828 43.09443359 48.11113281 43.09121094 47.09179688 43.08789062 C46.05087891 43.07951172 45.00996094 43.07113281 43.9375 43.0625 C42.89271484 43.05798828 41.84792969 43.05347656 40.77148438 43.04882812 C38.1809334 43.03699913 35.59049441 43.02051689 33 43 C33.6772989 38.8856619 34.96620639 35.25748046 36.50390625 31.38671875 C36.86801857 30.46509697 36.86801857 30.46509697 37.23948669 29.52485657 C38.0098905 27.57748441 38.78609451 25.63248603 39.5625 23.6875 C40.08827647 22.36148105 40.61367113 21.03531064 41.13867188 19.70898438 C42.42066632 16.47058135 43.71049047 13.23545801 45 10 C36.09 9.67 27.18 9.34 18 9 C17.34 11.97 16.68 14.94 16 18 C23.92 18 31.84 18 40 18 C39.01 20.97 38.02 23.94 37 27 C28.75 27 20.5 27 12 27 C11.01 30.3 10.02 33.6 9 37 C8.01 38.98 7.02 40.96 6 43 C-1.26 43 -8.52 43 -16 43 C-15.33977478 39.6988739 -14.80142898 37.18676847 -13.6171875 34.15942383 C-13.3402002 33.4455098 -13.06321289 32.73159576 -12.77783203 31.99604797 C-12.47989746 31.24067245 -12.18196289 30.48529694 -11.875 29.70703125 C-11.56804199 28.91979172 -11.26108398 28.13255219 -10.94482422 27.32145691 C-9.96705052 24.81695258 -8.98348808 22.31476506 -8 19.8125 C-7.3381859 18.11797745 -6.6767237 16.42331741 -6.015625 14.72851562 C-5.38573115 13.11706454 -4.75553335 11.50573222 -4.125 9.89453125 C-3.82706543 9.13308304 -3.52913086 8.37163483 -3.22216797 7.58711243 C-1.11870974 2.23741948 -1.11870974 2.23741948 0 0 Z " fill="#FFFFFF" transform="translate(1704,357)"/>
<path d="M0 0 C23.43 0 46.86 0 71 0 C70.33973541 3.30132294 69.77360177 5.89333014 68.6171875 8.94824219 C68.3402002 9.68540466 68.06321289 10.42256714 67.77783203 11.18206787 C67.47989746 11.96245422 67.18196289 12.74284058 66.875 13.546875 C66.56804199 14.35868225 66.26108398 15.1704895 65.94482422 16.00689697 C65.29777522 17.71543363 64.64880993 19.42324563 63.99804688 21.13037109 C62.99885785 23.75299786 62.00681063 26.3782457 61.015625 29.00390625 C60.38583756 30.66422221 59.75564347 32.324384 59.125 33.984375 C58.82706543 34.77285828 58.52913086 35.56134155 58.22216797 36.37371826 C56.11545033 41.88454967 56.11545033 41.88454967 55 43 C53.36527118 43.08700342 51.72685945 43.10701063 50.08984375 43.09765625 C49.10048828 43.09443359 48.11113281 43.09121094 47.09179688 43.08789062 C46.05087891 43.07951172 45.00996094 43.07113281 43.9375 43.0625 C42.89271484 43.05798828 41.84792969 43.05347656 40.77148438 43.04882812 C38.1809334 43.03699913 35.59049441 43.02051689 33 43 C33.6772989 38.8856619 34.96620639 35.25748046 36.50390625 31.38671875 C36.86801857 30.46509697 36.86801857 30.46509697 37.23948669 29.52485657 C38.0098905 27.57748441 38.78609451 25.63248603 39.5625 23.6875 C40.08827647 22.36148105 40.61367113 21.03531064 41.13867188 19.70898438 C42.42066632 16.47058135 43.71049047 13.23545801 45 10 C36.09 9.67 27.18 9.34 18 9 C17.34 11.97 16.68 14.94 16 18 C23.92 18 31.84 18 40 18 C39.01 20.97 38.02 23.94 37 27 C28.75 27 20.5 27 12 27 C11.01 30.3 10.02 33.6 9 37 C8.01 38.98 7.02 40.96 6 43 C-1.26 43 -8.52 43 -16 43 C-15.33977478 39.6988739 -14.80142898 37.18676847 -13.6171875 34.15942383 C-13.3402002 33.4455098 -13.06321289 32.73159576 -12.77783203 31.99604797 C-12.47989746 31.24067245 -12.18196289 30.48529694 -11.875 29.70703125 C-11.56804199 28.91979172 -11.26108398 28.13255219 -10.94482422 27.32145691 C-9.96705052 24.81695258 -8.98348808 22.31476506 -8 19.8125 C-7.3381859 18.11797745 -6.6767237 16.42331741 -6.015625 14.72851562 C-5.38573115 13.11706454 -4.75553335 11.50573222 -4.125 9.89453125 C-3.82706543 9.13308304 -3.52913086 8.37163483 -3.22216797 7.58711243 C-1.11870974 2.23741948 -1.11870974 2.23741948 0 0 Z " fill="#FFFFFF" transform="translate(1292,357)"/>
<path d="M0 0 C7.26 0 14.52 0 22 0 C20.63743522 6.13154151 19.26443621 11.38383715 16.875 17.0625 C15.451875 20.4965625 15.451875 20.4965625 14 24 C23.24 24 32.48 24 42 24 C42.33 22.68 42.66 21.36 43 20 C36.73 20 30.46 20 24 20 C25 15 25 15 27 11 C40.86 11 54.72 11 69 11 C68.3418836 14.29058199 67.77220346 16.90162548 66.625 19.953125 C66.36203125 20.654375 66.0990625 21.355625 65.828125 22.078125 C65.41820312 23.15320313 65.41820312 23.15320313 65 24.25 C64.59007812 25.34828125 64.59007812 25.34828125 64.171875 26.46875 C62.13225446 31.86774554 62.13225446 31.86774554 61 33 C58.73008113 33.09439978 56.45718033 33.11742226 54.18530273 33.11352539 C53.11706772 33.11374443 53.11706772 33.11374443 52.0272522 33.1139679 C49.66266888 33.1132687 47.29816339 33.10547606 44.93359375 33.09765625 C43.29834537 33.09579209 41.66309643 33.09436818 40.02784729 33.09336853 C35.71565215 33.08954318 31.40349048 33.07971275 27.09130859 33.06866455 C22.69434054 33.0584508 18.29736711 33.05387099 13.90039062 33.04882812 C5.26691169 33.03809049 -3.36654 33.02101387 -12 33 C-11.26430039 29.09445037 -10.18912361 25.60534109 -8.75 21.89453125 C-8.3065625 20.74662109 -7.863125 19.59871094 -7.40625 18.41601562 C-6.9421875 17.22685547 -6.478125 16.03769531 -6 14.8125 C-5.5359375 13.61173828 -5.071875 12.41097656 -4.59375 11.17382812 C-1.16870301 2.33740602 -1.16870301 2.33740602 0 0 Z " fill="#FFFFFF" transform="translate(1441,367)"/>
<path d="M0 0 C10.89 0 21.78 0 33 0 C31.875 6.75 31.875 6.75 30.58984375 10.0859375 C30.3487085 10.72063965 30.10757324 11.3553418 29.85913086 12.00927734 C29.55499268 12.78996582 29.25085449 13.5706543 28.9375 14.375 C27.968125 16.89125 26.99875 19.4075 26 22 C34.25 22 42.5 22 51 22 C50.01 24.97 49.02 27.94 48 31 C39.42 31.33 30.84 31.66 22 32 C19.74005411 38.16237332 19.74005411 38.16237332 17.48266602 44.32568359 C17.20092529 45.09219238 16.91918457 45.85870117 16.62890625 46.6484375 C16.34088135 47.43395996 16.05285645 48.21948242 15.75610352 49.02880859 C15 51 15 51 14 53 C6.41 53 -1.18 53 -9 53 C-7.52528107 49.10787842 -6.05035625 45.21583599 -4.57495117 41.32397461 C-4.07548897 40.0063092 -3.57613593 38.6886024 -3.0769043 37.37084961 C-2.5919044 36.09070385 -2.10662386 34.81066438 -1.62106323 33.5307312 C-1.13625445 32.2512327 -0.65279696 30.97122137 -0.17068481 29.69070435 C1.01960439 26.53798806 2.23557069 23.40076933 3.51416016 20.28271484 C3.97999512 19.13109863 4.44583008 17.97948242 4.92578125 16.79296875 C5.34899658 15.77098389 5.77221191 14.74899902 6.20825195 13.69604492 C7.30721208 10.79499279 7.30721208 10.79499279 6 7 C4.02 4.69 2.04 2.38 0 0 Z " fill="#FFFFFF" transform="translate(1123,347)"/>
<path d="M0 0 C3 1 3 1 4.16674805 3.22485352 C4.52808838 4.18319092 4.88942871 5.14152832 5.26171875 6.12890625 C5.85629883 7.68061523 5.85629883 7.68061523 6.46289062 9.26367188 C6.86701172 10.35228516 7.27113281 11.44089844 7.6875 12.5625 C8.10322266 13.65498047 8.51894531 14.74746094 8.94726562 15.87304688 C9.97504816 18.57835952 10.99207783 21.28723863 12 24 C13.73413481 21.39879779 14.78614629 19.24790753 15.91015625 16.3671875 C16.26013672 15.47902344 16.61011719 14.59085937 16.97070312 13.67578125 C17.33099609 12.75152344 17.69128906 11.82726562 18.0625 10.875 C18.78021842 9.03814895 19.50015198 7.20216137 20.22265625 5.3671875 C20.53984619 4.55362793 20.85703613 3.74006836 21.18383789 2.90185547 C22 1 22 1 23 0 C24.56172745 -0.08685603 26.12729344 -0.10702219 27.69140625 -0.09765625 C28.63564453 -0.09443359 29.57988281 -0.09121094 30.55273438 -0.08789062 C31.54595703 -0.07951172 32.53917969 -0.07113281 33.5625 -0.0625 C34.55958984 -0.05798828 35.55667969 -0.05347656 36.58398438 -0.04882812 C39.05604849 -0.03700007 41.52799518 -0.02051849 44 0 C43.35448823 5.24432728 41.73170297 9.78865348 39.83984375 14.6796875 C39.53051407 15.49245148 39.22118439 16.30521545 38.90248108 17.14260864 C37.91938091 19.72210436 36.92856919 22.29855697 35.9375 24.875 C35.26706573 26.63001268 34.59713833 28.38521908 33.92773438 30.140625 C32.29195153 34.42974085 30.64576123 38.7146501 29 43 C20.09 43 11.18 43 2 43 C0.453125 39.41125 -1.09375 35.8225 -2.6875 32.125 C-3.18467529 31.01527832 -3.68185059 29.90555664 -4.1940918 28.76220703 C-6.77433577 22.47352428 -7.4484942 18.55634502 -4.95776367 12.15673828 C-4.64170166 11.44501465 -4.32563965 10.73329102 -4 10 C-3.61457031 8.95585937 -3.22914062 7.91171875 -2.83203125 6.8359375 C-2.32736328 5.61777344 -2.32736328 5.61777344 -1.8125 4.375 C-1.46832031 3.53710938 -1.12414063 2.69921875 -0.76953125 1.8359375 C-0.51558594 1.23007812 -0.26164062 0.62421875 0 0 Z " fill="#FFFFFF" transform="translate(1805,357)"/>
<path d="M0 0 C3 1 3 1 4.16674805 3.22485352 C4.52808838 4.18319092 4.88942871 5.14152832 5.26171875 6.12890625 C5.85629883 7.68061523 5.85629883 7.68061523 6.46289062 9.26367188 C6.86701172 10.35228516 7.27113281 11.44089844 7.6875 12.5625 C8.10322266 13.65498047 8.51894531 14.74746094 8.94726562 15.87304688 C9.97504816 18.57835952 10.99207783 21.28723863 12 24 C13.73413481 21.39879779 14.78614629 19.24790753 15.91015625 16.3671875 C16.26013672 15.47902344 16.61011719 14.59085937 16.97070312 13.67578125 C17.33099609 12.75152344 17.69128906 11.82726562 18.0625 10.875 C18.78021842 9.03814895 19.50015198 7.20216137 20.22265625 5.3671875 C20.53984619 4.55362793 20.85703613 3.74006836 21.18383789 2.90185547 C22 1 22 1 23 0 C24.56172745 -0.08685603 26.12729344 -0.10702219 27.69140625 -0.09765625 C28.63564453 -0.09443359 29.57988281 -0.09121094 30.55273438 -0.08789062 C31.54595703 -0.07951172 32.53917969 -0.07113281 33.5625 -0.0625 C34.55958984 -0.05798828 35.55667969 -0.05347656 36.58398438 -0.04882812 C39.05604849 -0.03700007 41.52799518 -0.02051849 44 0 C43.35448823 5.24432728 41.73170297 9.78865348 39.83984375 14.6796875 C39.53051407 15.49245148 39.22118439 16.30521545 38.90248108 17.14260864 C37.91938091 19.72210436 36.92856919 22.29855697 35.9375 24.875 C35.26706573 26.63001268 34.59713833 28.38521908 33.92773438 30.140625 C32.29195153 34.42974085 30.64576123 38.7146501 29 43 C20.09 43 11.18 43 2 43 C0.453125 39.41125 -1.09375 35.8225 -2.6875 32.125 C-3.18467529 31.01527832 -3.68185059 29.90555664 -4.1940918 28.76220703 C-6.77433577 22.47352428 -7.4484942 18.55634502 -4.95776367 12.15673828 C-4.64170166 11.44501465 -4.32563965 10.73329102 -4 10 C-3.61457031 8.95585937 -3.22914062 7.91171875 -2.83203125 6.8359375 C-2.32736328 5.61777344 -2.32736328 5.61777344 -1.8125 4.375 C-1.46832031 3.53710938 -1.12414063 2.69921875 -0.76953125 1.8359375 C-0.51558594 1.23007812 -0.26164062 0.62421875 0 0 Z " fill="#FFFFFF" transform="translate(1393,357)"/>
<path d="M0 0 C1.22244667 0.00333092 1.22244667 0.00333092 2.46958923 0.00672913 C3.85090782 0.00684242 3.85090782 0.00684242 5.26013184 0.00695801 C6.2611644 0.01211929 7.26219696 0.01728058 8.29356384 0.02259827 C9.31316696 0.02401321 10.33277008 0.02542816 11.38327026 0.02688599 C14.65417867 0.03250355 17.92501972 0.04505902 21.19590759 0.05775452 C23.40749515 0.06276725 25.61908377 0.06733055 27.83067322 0.07142639 C33.26494116 0.08247868 38.69916957 0.09923389 44.13340759 0.12025452 C43.54662428 3.64095436 42.77690838 5.83325294 41.13340759 9.12025452 C33.21340759 9.12025452 25.29340759 9.12025452 17.13340759 9.12025452 C16.14340759 12.09025452 15.15340759 15.06025452 14.13340759 18.12025452 C13.11522956 20.8882316 12.08616947 23.64756304 11.03184509 26.40150452 C10.74991302 27.14106384 10.46798096 27.88062317 10.17750549 28.64259338 C9.58857771 30.18564666 8.99867555 31.72832838 8.40782166 33.27064514 C7.50042852 35.64109887 6.5980297 38.01341553 5.69590759 40.38587952 C5.12068535 41.89120198 4.5451752 43.39641447 3.96934509 44.90150452 C3.69955841 45.61181824 3.42977173 46.32213196 3.15180969 47.05397034 C1.2480792 52.00558291 1.2480792 52.00558291 0.13340759 53.12025452 C-1.50132123 53.20725794 -3.13973296 53.22726514 -4.77674866 53.21791077 C-5.76610413 53.21468811 -6.75545959 53.21146545 -7.77479553 53.20814514 C-8.8157135 53.19976624 -9.85663147 53.19138733 -10.92909241 53.18275452 C-11.97387756 53.1782428 -13.01866272 53.17373108 -14.09510803 53.16908264 C-16.68566176 53.15725363 -19.27608986 53.13993286 -21.86659241 53.12025452 C-19.91000475 46.28370371 -17.65474754 39.6294116 -15.10877991 32.99134827 C-14.7602597 32.07563553 -14.4117395 31.15992279 -14.05265808 30.21646118 C-13.3232384 28.30247335 -12.59209007 26.38914347 -11.85926819 24.47645569 C-10.73324282 21.53595039 -9.61401322 18.59292076 -8.49549866 15.64955139 C-7.7836574 13.78416497 -7.07143193 11.9189251 -6.35877991 10.05384827 C-6.02337189 9.17168137 -5.68796387 8.28951447 -5.34239197 7.38061523 C-5.03181854 6.5720961 -4.72124512 5.76357697 -4.40126038 4.93055725 C-3.99180679 3.85994301 -3.99180679 3.85994301 -3.57408142 2.7677002 C-2.62241075 0.55165768 -2.4511386 0.15791369 0 0 Z " fill="#FFFFFF" transform="translate(1581.8665924072266,346.87974548339844)"/>
<path d="M0 0 C7.59 0 15.18 0 23 0 C20.66754057 7.77486475 17.91390394 15.42384974 15 23 C39.75 23.495 39.75 23.495 65 24 C64.01 26.97 63.02 29.94 62 33 C37.58 33 13.16 33 -12 33 C-4.125 10.5 -4.125 10.5 0 0 Z " fill="#FFFFFF" transform="translate(1207,367)"/>
<path d="M0 0 C24.09 0 48.18 0 73 0 C72.18478285 4.07608577 71.18393359 7.49206519 69.75 11.359375 C69.08484375 13.15568359 69.08484375 13.15568359 68.40625 14.98828125 C68.17550781 15.60525879 67.94476562 16.22223633 67.70703125 16.85791016 C66.99763405 18.75633153 66.2952986 20.65725988 65.59375 22.55859375 C62.13145439 31.86854561 62.13145439 31.86854561 61 33 C59.36527118 33.08700342 57.72685945 33.10701063 56.08984375 33.09765625 C55.10048828 33.09443359 54.11113281 33.09121094 53.09179688 33.08789062 C52.05087891 33.07951172 51.00996094 33.07113281 49.9375 33.0625 C48.89271484 33.05798828 47.84792969 33.05347656 46.77148438 33.04882812 C44.1809334 33.03699913 41.59049441 33.02051689 39 33 C40 27 40 27 47 9 C30.5 9 14 9 -3 9 C-2.01 6.03 -1.02 3.06 0 0 Z " fill="#FFFFFF" transform="translate(1211,357)"/>
<path d="M0 0 C7.59 0 15.18 0 23 0 C22.2752818 3.62359098 21.54568596 6.48486553 20.25 9.86621094 C19.89292969 10.80358093 19.53585937 11.74095093 19.16796875 12.70672607 C18.58982422 14.20541229 18.58982422 14.20541229 18 15.734375 C17.60425781 16.7681427 17.20851563 17.8019104 16.80078125 18.86700439 C15.96545717 21.04634877 15.12817253 23.22494255 14.2890625 25.40283203 C13.00011649 28.74969752 11.71835596 32.09925 10.4375 35.44921875 C9.6254242 37.56526701 8.81293845 39.681158 8 41.796875 C7.61457031 42.80409607 7.22914062 43.81131714 6.83203125 44.84906006 C6.47496094 45.77382141 6.11789062 46.69858276 5.75 47.65136719 C5.43546875 48.4690155 5.1209375 49.28666382 4.796875 50.12908936 C4 52 4 52 3 53 C1.43827255 53.08685603 -0.12729344 53.10702219 -1.69140625 53.09765625 C-2.63564453 53.09443359 -3.57988281 53.09121094 -4.55273438 53.08789062 C-5.54595703 53.07951172 -6.53917969 53.07113281 -7.5625 53.0625 C-8.55958984 53.05798828 -9.55667969 53.05347656 -10.58398438 53.04882812 C-13.05605138 53.03700005 -15.52798665 53.01967958 -18 53 C-16.64693134 46.23766353 -14.70021942 39.95640161 -12.3046875 33.49609375 C-11.95238068 32.5322023 -11.60007385 31.56831085 -11.23709106 30.57521057 C-10.12170357 27.52732924 -8.9984928 24.48240167 -7.875 21.4375 C-7.11276035 19.3589149 -6.35103645 17.2801406 -5.58984375 15.20117188 C-3.73346858 10.13152857 -1.86651929 5.06596296 0 0 Z " fill="#FFFFFF" transform="translate(1184,347)"/>
<path d="M0 0 C7.26 0 14.52 0 22 0 C20.1826524 6.05782533 18.22069963 12.07813432 16 18 C23.92 18 31.84 18 40 18 C39.01 20.97 38.02 23.94 37 27 C28.75 27 20.5 27 12 27 C11.01 30.3 10.02 33.6 9 37 C8.01 38.98 7.02 40.96 6 43 C-1.26 43 -8.52 43 -16 43 C-15.32085039 39.60425195 -14.74788013 37.05559797 -13.50952148 33.9440918 C-13.20928574 33.18368088 -12.90904999 32.42326996 -12.59971619 31.63981628 C-12.27677078 30.8344191 -11.95382538 30.02902191 -11.62109375 29.19921875 C-11.28956802 28.36284378 -10.9580423 27.52646881 -10.61647034 26.66474915 C-9.56077063 24.00407378 -8.49922408 21.34577634 -7.4375 18.6875 C-6.71901362 16.87971122 -6.00091028 15.07177015 -5.28320312 13.26367188 C-3.52727972 8.84036888 -1.7634641 4.42033178 0 0 Z " fill="#FFFFFF" transform="translate(1857,357)"/>
<path d="M0 0 C7.26 0 14.52 0 22 0 C20.1826524 6.05782533 18.22069963 12.07813432 16 18 C23.92 18 31.84 18 40 18 C39.01 20.97 38.02 23.94 37 27 C28.75 27 20.5 27 12 27 C11.01 30.3 10.02 33.6 9 37 C8.01 38.98 7.02 40.96 6 43 C-1.26 43 -8.52 43 -16 43 C-15.32085039 39.60425195 -14.74788013 37.05559797 -13.50952148 33.9440918 C-13.20928574 33.18368088 -12.90904999 32.42326996 -12.59971619 31.63981628 C-12.27677078 30.8344191 -11.95382538 30.02902191 -11.62109375 29.19921875 C-11.28956802 28.36284378 -10.9580423 27.52646881 -10.61647034 26.66474915 C-9.56077063 24.00407378 -8.49922408 21.34577634 -7.4375 18.6875 C-6.71901362 16.87971122 -6.00091028 15.07177015 -5.28320312 13.26367188 C-3.52727972 8.84036888 -1.7634641 4.42033178 0 0 Z " fill="#FFFFFF" transform="translate(1625,357)"/>
<path d="M0 0 C0.91644287 0.00523682 1.83288574 0.01047363 2.77709961 0.01586914 C4.26113281 0.02070313 4.26113281 0.02070313 5.77514648 0.02563477 C6.81606445 0.03401367 7.85698242 0.04239258 8.92944336 0.05102539 C10.49662109 0.05779297 10.49662109 0.05779297 12.09545898 0.06469727 C14.68600996 0.07652627 17.27644895 0.0930085 19.86694336 0.11352539 C16.1356154 10.86441406 12.36003116 21.59849231 8.49194336 32.30102539 C8.14647461 33.26282715 7.80100586 34.22462891 7.44506836 35.21557617 C7.12280273 36.1035791 6.80053711 36.99158203 6.46850586 37.90649414 C6.18313965 38.69564209 5.89777344 39.48479004 5.60375977 40.29785156 C4.86694336 42.11352539 4.86694336 42.11352539 3.86694336 43.11352539 C2.15921978 43.20066371 0.44795687 43.22052546 -1.26196289 43.21118164 C-2.81367187 43.20634766 -2.81367187 43.20634766 -4.39672852 43.20141602 C-5.4853418 43.19303711 -6.57395508 43.1846582 -7.69555664 43.17602539 C-9.33427734 43.16925781 -9.33427734 43.16925781 -11.00610352 43.16235352 C-13.71514159 43.15052366 -16.42407263 43.13404082 -19.13305664 43.11352539 C-17.65845277 39.22136051 -16.18341283 35.32936123 -14.70800781 31.4375 C-14.20854561 30.11983459 -13.70919257 28.80212779 -13.20996094 27.484375 C-11.76013586 23.65759601 -10.3076228 19.83185403 -8.85235596 16.00714111 C-8.12890155 14.10258678 -7.40898784 12.19671746 -6.68920898 10.29077148 C-6.2414209 9.11208496 -5.79363281 7.93339844 -5.33227539 6.71899414 C-4.93226318 5.66220459 -4.53225098 4.60541504 -4.12011719 3.51660156 C-2.73547731 0.14558738 -2.73547731 0.14558738 0 0 Z " fill="#FFFFFF" transform="translate(1784.133056640625,356.886474609375)"/>
<path d="M0 0 C0.91644287 0.00523682 1.83288574 0.01047363 2.77709961 0.01586914 C4.26113281 0.02070313 4.26113281 0.02070313 5.77514648 0.02563477 C6.81606445 0.03401367 7.85698242 0.04239258 8.92944336 0.05102539 C10.49662109 0.05779297 10.49662109 0.05779297 12.09545898 0.06469727 C14.68600996 0.07652627 17.27644895 0.0930085 19.86694336 0.11352539 C16.1356154 10.86441406 12.36003116 21.59849231 8.49194336 32.30102539 C8.14647461 33.26282715 7.80100586 34.22462891 7.44506836 35.21557617 C7.12280273 36.1035791 6.80053711 36.99158203 6.46850586 37.90649414 C6.18313965 38.69564209 5.89777344 39.48479004 5.60375977 40.29785156 C4.86694336 42.11352539 4.86694336 42.11352539 3.86694336 43.11352539 C2.15921978 43.20066371 0.44795687 43.22052546 -1.26196289 43.21118164 C-2.81367187 43.20634766 -2.81367187 43.20634766 -4.39672852 43.20141602 C-5.4853418 43.19303711 -6.57395508 43.1846582 -7.69555664 43.17602539 C-9.33427734 43.16925781 -9.33427734 43.16925781 -11.00610352 43.16235352 C-13.71514159 43.15052366 -16.42407263 43.13404082 -19.13305664 43.11352539 C-17.65845277 39.22136051 -16.18341283 35.32936123 -14.70800781 31.4375 C-14.20854561 30.11983459 -13.70919257 28.80212779 -13.20996094 27.484375 C-11.76013586 23.65759601 -10.3076228 19.83185403 -8.85235596 16.00714111 C-8.12890155 14.10258678 -7.40898784 12.19671746 -6.68920898 10.29077148 C-6.2414209 9.11208496 -5.79363281 7.93339844 -5.33227539 6.71899414 C-4.93226318 5.66220459 -4.53225098 4.60541504 -4.12011719 3.51660156 C-2.73547731 0.14558738 -2.73547731 0.14558738 0 0 Z " fill="#FFFFFF" transform="translate(1372.133056640625,356.886474609375)"/>
<path d="M0 0 C0.87454834 0.00523682 1.74909668 0.01047363 2.65014648 0.01586914 C3.59438477 0.0190918 4.53862305 0.02231445 5.51147461 0.02563477 C6.50469727 0.03401367 7.49791992 0.04239258 8.52124023 0.05102539 C9.51833008 0.05553711 10.51541992 0.06004883 11.54272461 0.06469727 C14.01478872 0.07652532 16.48673541 0.0930069 18.95874023 0.11352539 C18.32126433 5.28841993 16.73587823 9.72959925 14.83374023 14.53930664 C14.52678223 15.3275029 14.21982422 16.11569916 13.90356445 16.92778015 C13.25737834 18.58362181 12.60840135 20.23837676 11.95678711 21.89208984 C10.95607829 24.4327838 9.96454583 26.97691536 8.97436523 29.52172852 C8.34468896 31.13196272 7.71449882 32.74199609 7.08374023 34.35180664 C6.78580566 35.11527908 6.48787109 35.87875153 6.1809082 36.6653595 C4.07503409 41.99723153 4.07503409 41.99723153 2.95874023 43.11352539 C1.32401142 43.20052881 -0.31440032 43.22053602 -1.95141602 43.21118164 C-2.94077148 43.20795898 -3.93012695 43.20473633 -4.94946289 43.20141602 C-5.99038086 43.19303711 -7.03129883 43.1846582 -8.10375977 43.17602539 C-9.14854492 43.17151367 -10.19333008 43.16700195 -11.26977539 43.16235352 C-13.86032636 43.15052452 -16.45076535 43.13404228 -19.04125977 43.11352539 C-18.32782039 38.29421849 -16.53230195 34.04385301 -14.69750977 29.56665039 C-14.36835571 28.75484314 -14.03920166 27.94303589 -13.70007324 27.10662842 C-13.00617241 25.397948 -12.31012338 23.6901386 -11.61206055 21.9831543 C-10.54013996 19.36078586 -9.47574194 16.73545738 -8.41235352 14.10961914 C-7.73701297 12.44928357 -7.06124662 10.78912111 -6.38500977 9.12915039 C-6.06520142 8.34066711 -5.74539307 7.55218384 -5.41589355 6.73980713 C-2.71501793 0.15099669 -2.71501793 0.15099669 0 0 Z " fill="#FFFFFF" transform="translate(1909.041259765625,356.886474609375)"/>
<path d="M0 0 C0.87454834 0.00523682 1.74909668 0.01047363 2.65014648 0.01586914 C3.59438477 0.0190918 4.53862305 0.02231445 5.51147461 0.02563477 C6.50469727 0.03401367 7.49791992 0.04239258 8.52124023 0.05102539 C9.51833008 0.05553711 10.51541992 0.06004883 11.54272461 0.06469727 C14.01478872 0.07652532 16.48673541 0.0930069 18.95874023 0.11352539 C18.32126433 5.28841993 16.73587823 9.72959925 14.83374023 14.53930664 C14.52678223 15.3275029 14.21982422 16.11569916 13.90356445 16.92778015 C13.25737834 18.58362181 12.60840135 20.23837676 11.95678711 21.89208984 C10.95607829 24.4327838 9.96454583 26.97691536 8.97436523 29.52172852 C8.34468896 31.13196272 7.71449882 32.74199609 7.08374023 34.35180664 C6.78580566 35.11527908 6.48787109 35.87875153 6.1809082 36.6653595 C4.07503409 41.99723153 4.07503409 41.99723153 2.95874023 43.11352539 C1.32401142 43.20052881 -0.31440032 43.22053602 -1.95141602 43.21118164 C-2.94077148 43.20795898 -3.93012695 43.20473633 -4.94946289 43.20141602 C-5.99038086 43.19303711 -7.03129883 43.1846582 -8.10375977 43.17602539 C-9.14854492 43.17151367 -10.19333008 43.16700195 -11.26977539 43.16235352 C-13.86032636 43.15052452 -16.45076535 43.13404228 -19.04125977 43.11352539 C-18.32782039 38.29421849 -16.53230195 34.04385301 -14.69750977 29.56665039 C-14.36835571 28.75484314 -14.03920166 27.94303589 -13.70007324 27.10662842 C-13.00617241 25.397948 -12.31012338 23.6901386 -11.61206055 21.9831543 C-10.54013996 19.36078586 -9.47574194 16.73545738 -8.41235352 14.10961914 C-7.73701297 12.44928357 -7.06124662 10.78912111 -6.38500977 9.12915039 C-6.06520142 8.34066711 -5.74539307 7.55218384 -5.41589355 6.73980713 C-2.71501793 0.15099669 -2.71501793 0.15099669 0 0 Z " fill="#FFFFFF" transform="translate(1677.041259765625,356.886474609375)"/>
<path d="M0 0 C24.09 0 48.18 0 73 0 C70 10 70 10 69 13 C61.21134778 15.28288082 53.03909191 16.00438124 45 17 C45.875 11.25 45.875 11.25 47 9 C30.5 9 14 9 -3 9 C-2 4 -2 4 0 0 Z " fill="#FFFFFF" transform="translate(1445,357)"/>
<path d="M0 0 C12.54 0 25.08 0 38 0 C36.68 2.97 35.36 5.94 34 9 C30.02184722 9.23467265 26.04549363 9.37518319 22.0625 9.5 C20.94552734 9.56703125 19.82855469 9.6340625 18.67773438 9.703125 C12.26019831 9.85368303 8.60387644 9.35083974 3.68359375 5.03125 C0 1.3017406 0 1.3017406 0 0 Z " fill="#FFFFFF" transform="translate(1541,347)"/>
<path d="M0 0 C0.33 0 0.66 0 1 0 C1 6.27 1 12.54 1 19 C0.67 19 0.34 19 0 19 C0 12.73 0 6.46 0 0 Z " fill="#090909" transform="translate(2017,303)"/>
<path d="M0 0 C0.33 0 0.66 0 1 0 C1 6.27 1 12.54 1 19 C0.67 19 0.34 19 0 19 C0 12.73 0 6.46 0 0 Z " fill="#090909" transform="translate(0,34)"/>
</svg>
