<?xml version="1.0" encoding="UTF-8"?>
<!DOCTYPE svg PUBLIC "-//W3C//DTD SVG 1.1//EN" "http://www.w3.org/Graphics/SVG/1.1/DTD/svg11.dtd">
<svg xmlns="http://www.w3.org/2000/svg" version="1.1" width="2018px" height="357px" style="shape-rendering:geometricPrecision; text-rendering:geometricPrecision; image-rendering:optimizeQuality; fill-rule:evenodd; clip-rule:evenodd" xmlns:xlink="http://www.w3.org/1999/xlink">
<g><path style="opacity:0.997" fill="#ffffff" d="M 1014.5,10.5 C 1042.51,10.1669 1070.51,10.5002 1098.5,11.5C 1095.94,18.2823 1093.11,24.949 1090,31.5C 1087.93,38.5441 1085.76,45.5441 1083.5,52.5C 729.833,52.8333 376.166,52.5 22.5,51.5C 18.9667,45.7954 15.6334,39.9621 12.5,34C 343.501,33.8333 674.501,33.3333 1005.5,32.5C 1008.51,25.1454 1011.51,17.812 1014.5,10.5 Z"/></g>
<g><path style="opacity:0.14" fill="#ffffff" d="M -0.5,33.5 C 0.833333,39.8333 0.833333,46.1667 -0.5,52.5C -0.5,46.1667 -0.5,39.8333 -0.5,33.5 Z"/></g>
<g><path style="opacity:0.949" fill="#ffffff" d="M 32.5,62.5 C 78.1667,62.5 123.833,62.5 169.5,62.5C 165.664,74.5065 161.331,86.3398 156.5,98C 125.833,98.6667 95.1667,98.6667 64.5,98C 55.0302,87.5294 45.1969,77.3628 35,67.5C 33.9055,65.9221 33.0722,64.2554 32.5,62.5 Z"/></g>
<g><path style="opacity:0.978" fill="#ffffff" d="M 177.5,62.5 C 234.167,62.5 290.833,62.5 347.5,62.5C 343.664,74.5065 339.331,86.3398 334.5,98C 304.835,98.5 275.169,98.6666 245.5,98.5C 223.5,159.5 201.5,220.5 179.5,281.5C 152.159,281.833 124.825,281.5 97.5,280.5C 123.978,207.728 150.645,135.061 177.5,62.5 Z"/></g>
<g><path style="opacity:0.981" fill="#ffffff" d="M 829.5,62.5 C 912.5,62.5 995.5,62.5 1078.5,62.5C 1051.9,135.286 1024.9,207.952 997.5,280.5C 914.503,281.5 831.503,281.833 748.5,281.5C 753.924,264.003 760.424,247.003 768,230.5C 796.105,226.549 824.272,223.382 852.5,221C 849.001,229.33 846.001,237.83 843.5,246.5C 873.225,247.154 902.725,246.487 932,244.5C 939.167,225.5 946.333,206.5 953.5,187.5C 896.833,186.833 840.167,186.167 783.5,185.5C 793.363,159.911 803.03,134.244 812.5,108.5C 840.494,107.333 868.494,107.167 896.5,108C 890.67,121.991 885.337,136.158 880.5,150.5C 909.169,150.667 937.835,150.5 966.5,150C 972.73,133.145 979.064,116.311 985.5,99.5C 929.171,98.5 872.837,98.1667 816.5,98.5C 820.826,86.5105 825.16,74.5105 829.5,62.5 Z"/></g>
<g><path style="opacity:0.981" fill="#ffffff" d="M 1123.5,62.5 C 1206.5,62.5 1289.5,62.5 1372.5,62.5C 1345.9,135.286 1318.9,207.952 1291.5,280.5C 1208.5,281.5 1125.5,281.833 1042.5,281.5C 1047.92,264.003 1054.42,247.003 1062,230.5C 1090.11,226.549 1118.27,223.382 1146.5,221C 1143,229.33 1140,237.83 1137.5,246.5C 1167.22,247.154 1196.72,246.487 1226,244.5C 1233.17,225.5 1240.33,206.5 1247.5,187.5C 1190.83,186.833 1134.17,186.167 1077.5,185.5C 1087.36,159.911 1097.03,134.244 1106.5,108.5C 1134.49,107.333 1162.49,107.167 1190.5,108C 1184.67,121.991 1179.34,136.158 1174.5,150.5C 1203.17,150.667 1231.84,150.5 1260.5,150C 1266.73,133.145 1273.06,116.311 1279.5,99.5C 1223.17,98.5 1166.84,98.1667 1110.5,98.5C 1114.83,86.5105 1119.16,74.5105 1123.5,62.5 Z"/></g>
<g><path style="opacity:0.982" fill="#ffffff" d="M 346.5,105.5 C 372.5,105.5 398.5,105.5 424.5,105.5C 404.107,164.009 383.107,222.343 361.5,280.5C 334.175,281.5 306.841,281.833 279.5,281.5C 301.439,222.684 323.772,164.018 346.5,105.5 Z"/></g>
<g><path style="opacity:0.982" fill="#ffffff" d="M 454.5,105.5 C 480.833,105.5 507.167,105.5 533.5,105.5C 513.239,163.949 492.572,222.283 471.5,280.5C 444.175,281.5 416.841,281.833 389.5,281.5C 410.77,222.691 432.436,164.024 454.5,105.5 Z"/></g>
<g><path style="opacity:0.981" fill="#ffffff" d="M 541.5,105.5 C 545.106,105.211 548.606,105.544 552,106.5C 559.667,146.833 567.333,187.167 575,227.5C 605.469,186.73 636.303,146.23 667.5,106C 706.504,105.167 745.504,105.333 784.5,106.5C 763.636,164.424 742.97,222.424 722.5,280.5C 695.167,281.833 667.833,281.833 640.5,280.5C 652.529,248.902 664.029,217.235 675,185.5C 650.5,217.333 626,249.167 601.5,281C 577.493,281.833 553.493,281.666 529.5,280.5C 523.674,249.377 518.007,218.211 512.5,187C 521.876,159.705 531.542,132.538 541.5,105.5 Z"/></g>
<g><path style="opacity:0.979" fill="#ffffff" d="M 1515.5,105.5 C 1542.83,105.5 1570.17,105.5 1597.5,105.5C 1578.63,154.913 1559.46,204.246 1540,253.5C 1533.67,262.5 1527.33,271.5 1521,280.5C 1497.24,281.494 1473.41,281.828 1449.5,281.5C 1471.7,222.911 1493.7,164.244 1515.5,105.5 Z"/></g>
<g><path style="opacity:0.979" fill="#ffffff" d="M 1664.5,105.5 C 1694.17,105.167 1723.84,105.5 1753.5,106.5C 1708.38,164.576 1663.38,222.743 1618.5,281C 1588.83,281.667 1559.17,281.667 1529.5,281C 1574.72,222.624 1619.72,164.124 1664.5,105.5 Z"/></g>
<g><path style="opacity:0.982" fill="#ffffff" d="M 1761.5,105.5 C 1787.83,105.5 1814.17,105.5 1840.5,105.5C 1820.24,163.949 1799.57,222.283 1778.5,280.5C 1751.17,281.5 1723.84,281.833 1696.5,281.5C 1717.77,222.691 1739.44,164.024 1761.5,105.5 Z"/></g>
<g><path style="opacity:0.98" fill="#ffffff" d="M 1847.5,105.5 C 1849.83,105.5 1852.17,105.5 1854.5,105.5C 1866.36,142.575 1878.52,179.575 1891,216.5C 1904.45,179.495 1918.28,142.661 1932.5,106C 1958.5,105.5 1984.5,105.333 2010.5,105.5C 1990.5,163.987 1970,222.32 1949,280.5C 1916.9,281.828 1884.73,281.828 1852.5,280.5C 1841.26,246.964 1830.76,213.297 1821,179.5C 1830.34,154.988 1839.17,130.321 1847.5,105.5 Z"/></g>
<g><path style="opacity:0.971" fill="#ffffff" d="M 1354.5,239.5 C 1381.83,239.5 1409.17,239.5 1436.5,239.5C 1430.17,257.5 1423.83,275.5 1417.5,293.5C 1390.16,293.667 1362.83,293.5 1335.5,293C 1342.33,275.337 1348.67,257.504 1354.5,239.5 Z"/></g>
<g><path style="opacity:0.997" fill="#ffffff" d="M 1035.5,302.5 C 1336.83,302.333 1638.17,302.5 1939.5,303C 1937.21,308.716 1935.21,314.549 1933.5,320.5C 1659.17,321.5 1384.83,321.833 1110.5,321.5C 1109.2,328.221 1107.2,334.721 1104.5,341C 1077.16,341.833 1049.83,341.667 1022.5,340.5C 1026.53,327.687 1030.87,315.021 1035.5,302.5 Z"/></g>
<g><path style="opacity:0.266" fill="#ffffff" d="M 2017.5,302.5 C 2017.5,308.833 2017.5,315.167 2017.5,321.5C 2016.17,315.167 2016.17,308.833 2017.5,302.5 Z"/></g>
</svg>
